<svg width="44" height="44" viewBox="0 0 44 44" fill="none" xmlns="http://www.w3.org/2000/svg">
<rect x="6.10352e-05" y="-6.10352e-05" width="43.76" height="44" rx="3" fill="black"/>
<g clip-path="url(#clip0_10_8)">
<path d="M5.88007 13.0049C9.08673 12.9983 12.2951 13.0049 15.5051 13.0249C18.9201 13.0449 21.7351 14.7399 21.4201 18.5999C21.3001 20.1033 20.5984 21.1883 19.3151 21.8549C19.1417 21.9449 19.1417 22.0366 19.3151 22.1299C21.4951 23.2766 22.3901 25.0116 22.0001 27.3349C21.4367 30.6883 19.3517 32.3966 15.7451 32.4599C12.4651 32.5199 9.17673 32.5249 5.88007 32.4749V13.0049ZM9.82007 16.5249L9.81007 20.5549C9.81007 20.5947 9.82587 20.6329 9.854 20.661C9.88213 20.6891 9.92028 20.7049 9.96007 20.7049L15.0701 20.7099C15.3919 20.7107 15.7106 20.662 16.0082 20.5666C16.3057 20.4713 16.5762 20.3312 16.8042 20.1543C17.0322 19.9774 17.2132 19.7671 17.3369 19.5356C17.4606 19.3041 17.5245 19.0558 17.5251 18.8049V18.2949C17.5262 17.7885 17.2693 17.3022 16.8108 16.9431C16.3522 16.584 15.7297 16.3814 15.0801 16.3799L9.97007 16.3749C9.95037 16.3749 9.93086 16.3788 9.91266 16.3864C9.89446 16.3939 9.87793 16.4049 9.864 16.4189C9.85007 16.4328 9.83902 16.4493 9.83148 16.4675C9.82395 16.4857 9.82007 16.5052 9.82007 16.5249ZM9.80507 24.0449L9.82507 28.9949C9.82507 29.0321 9.83982 29.0677 9.86607 29.0939C9.89233 29.1202 9.92794 29.1349 9.96507 29.1349L15.3051 29.1149C16.0078 29.1121 16.6806 28.8571 17.1757 28.4061C17.6708 27.9551 17.9475 27.345 17.9451 26.7099V26.2699C17.9439 25.9554 17.8741 25.6441 17.7398 25.354C17.6054 25.0639 17.4091 24.8006 17.1621 24.5791C16.9151 24.3576 16.6222 24.1823 16.3001 24.0632C15.9781 23.9441 15.6331 23.8835 15.2851 23.8849L9.94507 23.9049C9.90794 23.9049 9.87233 23.9197 9.84607 23.9459C9.81982 23.9722 9.80507 24.0078 9.80507 24.0449Z" fill="white"/>
<path d="M34.635 13.92H26.495C26.4205 13.92 26.36 13.9804 26.36 14.055V16.185C26.36 16.2595 26.4205 16.32 26.495 16.32H34.635C34.7096 16.32 34.77 16.2595 34.77 16.185V14.055C34.77 13.9804 34.7096 13.92 34.635 13.92Z" fill="white"/>
<path d="M37.88 24.105V26.3449L27.515 26.36C27.3184 26.36 27.2267 26.4566 27.24 26.65C27.3467 28.0799 27.925 29.0316 28.975 29.5049C30.9284 30.3816 32.5067 30.0483 33.71 28.5049C33.7581 28.4427 33.8196 28.3924 33.8898 28.3577C33.96 28.323 34.037 28.305 34.115 28.305L37.25 28.315C37.6 28.315 37.7084 28.4766 37.575 28.7999C34.955 35.0949 24.58 34.2 23.525 27.25C22.975 23.63 24.015 19.285 28.025 18.125C30.0417 17.5416 31.8734 17.5516 33.52 18.155C36.03 19.0683 37.4834 21.0516 37.88 24.105ZM27.46 23.88L33.8 23.86C33.8213 23.86 33.8416 23.8515 33.8566 23.8365C33.8716 23.8215 33.88 23.8012 33.88 23.78V23.735C33.8788 23.3495 33.7966 22.968 33.6382 22.6124C33.4797 22.2567 33.2481 21.9339 32.9565 21.6623C32.6649 21.3906 32.3191 21.1756 31.9388 21.0293C31.5585 20.8831 31.1511 20.8085 30.74 20.81H30.5C29.67 20.8128 28.8751 21.1246 28.29 21.6769C27.7049 22.2292 27.3776 22.9767 27.38 23.755V23.8C27.38 23.8212 27.3885 23.8415 27.4035 23.8565C27.4185 23.8715 27.4388 23.88 27.46 23.88Z" fill="white"/>
</g>
<defs>
<clipPath id="clip0_10_8">
<rect width="32" height="32" fill="white" transform="translate(5.88007 6.99994)"/>
</clipPath>
</defs>
</svg>
