<svg width="44" height="44" viewBox="0 0 44 44" fill="none" xmlns="http://www.w3.org/2000/svg">
<rect width="43.76" height="44" rx="3" fill="#2867B2"/>
<g clip-path="url(#clip0_3_66)">
<path d="M11.93 9.5H12.99C14.9333 10.3133 15.685 11.545 15.245 13.195C14.375 16.455 10.27 16.185 9.38 13.05V12.02C9.74 10.6533 10.59 9.81333 11.93 9.5Z" fill="white"/>
<path d="M34.38 23.895V34.5H29.175C29.2317 31.3967 29.2183 28.2933 29.135 25.19C29.09 23.535 28.62 22.12 26.845 21.945C24.79 21.745 23.48 23.1 23.44 25.13C23.38 28.2467 23.3617 31.37 23.385 34.5H18.22L18.205 18.365C18.205 18.025 18.375 17.855 18.715 17.855H22.76C23.0267 17.855 23.16 17.9883 23.16 18.255L23.15 19.76C23.1467 20.0633 23.2317 20.09 23.405 19.84C25.45 16.905 30.495 16.395 32.905 19.32C33.8384 20.4533 34.33 21.9783 34.38 23.895Z" fill="white"/>
<path d="M14.97 34.5H9.78503L9.79003 18.175C9.79003 17.965 9.89503 17.86 10.105 17.86L14.645 17.855C14.8584 17.855 14.965 17.9617 14.965 18.175L14.97 34.5Z" fill="white"/>
</g>
<defs>
<clipPath id="clip0_3_66">
<rect width="25" height="25" fill="white" transform="translate(9.38 9.5)"/>
</clipPath>
</defs>
</svg>
