<svg width="528" height="400" viewBox="0 0 528 400" fill="none" xmlns="http://www.w3.org/2000/svg">
<rect width="528" height="400" fill="#FAFAFA"/>
<path d="M76.272 76L74.952 72.664H68.376L67.128 76H62.664L69.792 59.008H73.776L80.832 76H76.272ZM71.712 63.544L69.552 69.376H73.824L71.712 63.544ZM89.2718 76H85.0238L80.3197 64.048H84.6638L87.1838 71.8H87.2558L89.7758 64.048H93.9758L89.2718 76ZM103.729 68.656C103.729 68.032 103.529 67.496 103.129 67.048C102.745 66.6 102.161 66.376 101.377 66.376C100.993 66.376 100.641 66.44 100.321 66.568C100.001 66.68 99.7209 66.84 99.4809 67.048C99.2409 67.256 99.0489 67.504 98.9049 67.792C98.7609 68.064 98.6809 68.352 98.6649 68.656H103.729ZM107.353 70.168C107.353 70.328 107.353 70.488 107.353 70.648C107.353 70.808 107.345 70.96 107.329 71.104H98.6649C98.6969 71.44 98.7929 71.744 98.9529 72.016C99.1289 72.288 99.3449 72.528 99.6009 72.736C99.8729 72.928 100.169 73.08 100.489 73.192C100.825 73.304 101.169 73.36 101.521 73.36C102.145 73.36 102.673 73.248 103.105 73.024C103.537 72.784 103.889 72.48 104.161 72.112L106.897 73.84C106.337 74.656 105.593 75.288 104.665 75.736C103.753 76.168 102.689 76.384 101.473 76.384C100.577 76.384 99.7289 76.248 98.9289 75.976C98.1289 75.688 97.4249 75.28 96.8169 74.752C96.2249 74.208 95.7529 73.544 95.4009 72.76C95.0649 71.976 94.8969 71.08 94.8969 70.072C94.8969 69.096 95.0649 68.216 95.4009 67.432C95.7369 66.632 96.1929 65.96 96.7689 65.416C97.3449 64.856 98.0249 64.424 98.8089 64.12C99.5929 63.816 100.441 63.664 101.353 63.664C102.233 63.664 103.041 63.816 103.777 64.12C104.513 64.408 105.145 64.832 105.673 65.392C106.201 65.952 106.609 66.632 106.897 67.432C107.201 68.232 107.353 69.144 107.353 70.168ZM117.642 76V69.472C117.642 69.136 117.61 68.816 117.546 68.512C117.498 68.208 117.41 67.944 117.282 67.72C117.154 67.48 116.97 67.296 116.73 67.168C116.506 67.024 116.218 66.952 115.866 66.952C115.514 66.952 115.202 67.024 114.93 67.168C114.674 67.296 114.458 67.48 114.282 67.72C114.106 67.96 113.97 68.24 113.874 68.56C113.794 68.864 113.754 69.184 113.754 69.52V76H109.794V64.048H113.61V65.704H113.658C113.802 65.448 113.986 65.2 114.21 64.96C114.45 64.704 114.722 64.488 115.026 64.312C115.346 64.136 115.69 63.992 116.058 63.88C116.426 63.768 116.818 63.712 117.234 63.712C118.034 63.712 118.714 63.856 119.274 64.144C119.834 64.432 120.282 64.808 120.618 65.272C120.97 65.72 121.218 66.24 121.362 66.832C121.522 67.424 121.602 68.016 121.602 68.608V76H117.642ZM128.855 60.232C128.855 60.536 128.791 60.824 128.663 61.096C128.551 61.352 128.391 61.576 128.183 61.768C127.991 61.96 127.751 62.112 127.463 62.224C127.191 62.336 126.903 62.392 126.599 62.392C125.959 62.392 125.423 62.184 124.991 61.768C124.559 61.336 124.343 60.824 124.343 60.232C124.343 59.944 124.399 59.672 124.511 59.416C124.623 59.144 124.783 58.912 124.991 58.72C125.199 58.528 125.439 58.376 125.711 58.264C125.983 58.136 126.279 58.072 126.599 58.072C126.903 58.072 127.191 58.128 127.463 58.24C127.751 58.352 127.991 58.504 128.183 58.696C128.391 58.888 128.551 59.12 128.663 59.392C128.791 59.648 128.855 59.928 128.855 60.232ZM124.631 76V64.048H128.567V76H124.631ZM139.436 67.264C139.26 67.216 139.084 67.184 138.908 67.168C138.748 67.152 138.588 67.144 138.428 67.144C137.9 67.144 137.452 67.24 137.084 67.432C136.732 67.624 136.444 67.856 136.22 68.128C136.012 68.4 135.86 68.696 135.764 69.016C135.668 69.336 135.62 69.616 135.62 69.856V76H131.684V64.048H135.476V65.776H135.524C135.828 65.168 136.26 64.672 136.82 64.288C137.38 63.904 138.028 63.712 138.764 63.712C138.924 63.712 139.076 63.72 139.22 63.736C139.38 63.752 139.508 63.776 139.604 63.808L139.436 67.264ZM152.216 76L145.376 64.888H145.304L145.4 76H141.416V59.008H146.096L152.912 70.096H152.984L152.888 59.008H156.872V76H152.216ZM168.393 68.656C168.393 68.032 168.193 67.496 167.793 67.048C167.409 66.6 166.825 66.376 166.041 66.376C165.657 66.376 165.305 66.44 164.985 66.568C164.665 66.68 164.385 66.84 164.145 67.048C163.905 67.256 163.713 67.504 163.569 67.792C163.425 68.064 163.345 68.352 163.329 68.656H168.393ZM172.017 70.168C172.017 70.328 172.017 70.488 172.017 70.648C172.017 70.808 172.009 70.96 171.993 71.104H163.329C163.361 71.44 163.457 71.744 163.617 72.016C163.793 72.288 164.009 72.528 164.265 72.736C164.537 72.928 164.833 73.08 165.153 73.192C165.489 73.304 165.833 73.36 166.185 73.36C166.809 73.36 167.337 73.248 167.769 73.024C168.201 72.784 168.553 72.48 168.825 72.112L171.561 73.84C171.001 74.656 170.257 75.288 169.329 75.736C168.417 76.168 167.353 76.384 166.137 76.384C165.241 76.384 164.393 76.248 163.593 75.976C162.793 75.688 162.089 75.28 161.481 74.752C160.889 74.208 160.417 73.544 160.065 72.76C159.729 71.976 159.561 71.08 159.561 70.072C159.561 69.096 159.729 68.216 160.065 67.432C160.401 66.632 160.857 65.96 161.433 65.416C162.009 64.856 162.689 64.424 163.473 64.12C164.257 63.816 165.105 63.664 166.017 63.664C166.897 63.664 167.705 63.816 168.441 64.12C169.177 64.408 169.809 64.832 170.337 65.392C170.865 65.952 171.273 66.632 171.561 67.432C171.865 68.232 172.017 69.144 172.017 70.168ZM182.079 76L179.511 72.328L176.871 76H172.311L177.087 69.736L172.767 64.048H177.351L179.583 67.24L181.839 64.048H186.279L181.983 69.736L186.711 76H182.079ZM192.441 67V71.56C192.441 72.12 192.545 72.544 192.753 72.832C192.977 73.104 193.369 73.24 193.929 73.24C194.121 73.24 194.321 73.224 194.529 73.192C194.753 73.16 194.937 73.112 195.081 73.048L195.129 75.928C194.857 76.024 194.513 76.104 194.097 76.168C193.681 76.248 193.265 76.288 192.849 76.288C192.049 76.288 191.377 76.192 190.833 76C190.289 75.792 189.849 75.504 189.513 75.136C189.193 74.752 188.961 74.304 188.817 73.792C188.673 73.264 188.601 72.68 188.601 72.04V67H186.681V64.048H188.577V60.904H192.441V64.048H195.249V67H192.441ZM196.427 71.272V68.152H202.523V71.272H196.427ZM218.391 71.056C218.391 71.984 218.207 72.768 217.839 73.408C217.471 74.032 216.983 74.536 216.375 74.92C215.767 75.304 215.071 75.584 214.287 75.76C213.519 75.92 212.727 76 211.911 76H205.143V59.008H211.911C212.567 59.008 213.239 59.08 213.927 59.224C214.615 59.352 215.239 59.584 215.799 59.92C216.359 60.24 216.815 60.68 217.167 61.24C217.519 61.8 217.695 62.512 217.695 63.376C217.695 64.32 217.439 65.104 216.927 65.728C216.415 66.336 215.743 66.776 214.911 67.048V67.096C215.391 67.176 215.839 67.328 216.255 67.552C216.687 67.76 217.055 68.032 217.359 68.368C217.679 68.704 217.927 69.096 218.103 69.544C218.295 69.992 218.391 70.496 218.391 71.056ZM213.735 63.928C213.735 63.352 213.511 62.936 213.063 62.68C212.631 62.408 211.983 62.272 211.119 62.272H209.103V65.776H211.311C212.079 65.776 212.671 65.624 213.087 65.32C213.519 65 213.735 64.536 213.735 63.928ZM214.287 70.672C214.287 69.968 214.023 69.48 213.495 69.208C212.967 68.936 212.263 68.8 211.383 68.8H209.103V72.688H211.407C211.727 72.688 212.055 72.664 212.391 72.616C212.743 72.552 213.055 72.448 213.327 72.304C213.615 72.16 213.847 71.96 214.023 71.704C214.199 71.432 214.287 71.088 214.287 70.672ZM233.56 69.976C233.56 70.952 233.384 71.84 233.032 72.64C232.68 73.424 232.2 74.096 231.592 74.656C230.984 75.2 230.28 75.624 229.48 75.928C228.68 76.232 227.824 76.384 226.912 76.384C226.016 76.384 225.16 76.232 224.344 75.928C223.544 75.624 222.84 75.2 222.232 74.656C221.64 74.096 221.168 73.424 220.816 72.64C220.464 71.84 220.288 70.952 220.288 69.976C220.288 69 220.464 68.12 220.816 67.336C221.168 66.552 221.64 65.888 222.232 65.344C222.84 64.8 223.544 64.384 224.344 64.096C225.16 63.808 226.016 63.664 226.912 63.664C227.824 63.664 228.68 63.808 229.48 64.096C230.28 64.384 230.984 64.8 231.592 65.344C232.2 65.888 232.68 66.552 233.032 67.336C233.384 68.12 233.56 69 233.56 69.976ZM229.768 69.976C229.768 69.592 229.704 69.216 229.576 68.848C229.448 68.48 229.264 68.16 229.024 67.888C228.784 67.6 228.488 67.368 228.136 67.192C227.784 67.016 227.376 66.928 226.912 66.928C226.448 66.928 226.04 67.016 225.688 67.192C225.336 67.368 225.04 67.6 224.8 67.888C224.576 68.16 224.4 68.48 224.272 68.848C224.16 69.216 224.104 69.592 224.104 69.976C224.104 70.36 224.16 70.736 224.272 71.104C224.4 71.472 224.584 71.808 224.824 72.112C225.064 72.4 225.36 72.632 225.712 72.808C226.064 72.984 226.472 73.072 226.936 73.072C227.4 73.072 227.808 72.984 228.16 72.808C228.512 72.632 228.808 72.4 229.048 72.112C229.288 71.808 229.464 71.472 229.576 71.104C229.704 70.736 229.768 70.36 229.768 69.976ZM236.1 76V57.856H240.084V76H236.1ZM252.248 76V74.44H252.2C251.816 75.048 251.264 75.52 250.544 75.856C249.84 76.176 249.088 76.336 248.288 76.336C247.392 76.336 246.592 76.16 245.888 75.808C245.184 75.456 244.584 74.992 244.088 74.416C243.608 73.824 243.24 73.144 242.984 72.376C242.728 71.608 242.6 70.808 242.6 69.976C242.6 69.144 242.728 68.352 242.984 67.6C243.256 66.832 243.632 66.16 244.112 65.584C244.608 65.008 245.2 64.552 245.888 64.216C246.592 63.88 247.376 63.712 248.24 63.712C249.12 63.712 249.864 63.88 250.472 64.216C251.08 64.552 251.552 64.92 251.888 65.32H251.936V57.856H255.872V76H252.248ZM252.104 70C252.104 69.616 252.032 69.24 251.888 68.872C251.76 68.504 251.568 68.176 251.312 67.888C251.072 67.6 250.776 67.368 250.424 67.192C250.072 67.016 249.672 66.928 249.224 66.928C248.76 66.928 248.352 67.016 248 67.192C247.648 67.368 247.352 67.6 247.112 67.888C246.872 68.16 246.688 68.48 246.56 68.848C246.448 69.216 246.392 69.592 246.392 69.976C246.392 70.36 246.448 70.744 246.56 71.128C246.688 71.496 246.872 71.824 247.112 72.112C247.352 72.4 247.648 72.632 248 72.808C248.352 72.984 248.76 73.072 249.224 73.072C249.672 73.072 250.072 72.984 250.424 72.808C250.776 72.632 251.072 72.4 251.312 72.112C251.568 71.824 251.76 71.496 251.888 71.128C252.032 70.76 252.104 70.384 252.104 70Z" fill="black"/>
<path d="M69.4 90.256H71.362L76.852 103H74.26L73.072 100.084H67.546L66.394 103H63.856L69.4 90.256ZM72.28 98.14L70.318 92.956L68.32 98.14H72.28ZM76.6035 94.36H78.9615L81.2295 100.66H81.2655L83.5515 94.36H85.8375L82.3995 103H80.0955L76.6035 94.36ZM93.212 97.816C93.212 97.54 93.17 97.276 93.086 97.024C93.014 96.772 92.894 96.55 92.726 96.358C92.558 96.166 92.342 96.016 92.078 95.908C91.826 95.788 91.526 95.728 91.178 95.728C90.53 95.728 89.978 95.926 89.522 96.322C89.078 96.706 88.832 97.204 88.784 97.816H93.212ZM95.372 98.788C95.372 98.884 95.372 98.98 95.372 99.076C95.372 99.172 95.366 99.268 95.354 99.364H88.784C88.808 99.676 88.886 99.964 89.018 100.228C89.162 100.48 89.348 100.702 89.576 100.894C89.804 101.074 90.062 101.218 90.35 101.326C90.638 101.434 90.938 101.488 91.25 101.488C91.79 101.488 92.246 101.392 92.618 101.2C92.99 100.996 93.296 100.72 93.536 100.372L94.976 101.524C94.124 102.676 92.888 103.252 91.268 103.252C90.596 103.252 89.978 103.15 89.414 102.946C88.85 102.73 88.358 102.43 87.938 102.046C87.53 101.662 87.206 101.194 86.966 100.642C86.738 100.078 86.624 99.442 86.624 98.734C86.624 98.038 86.738 97.408 86.966 96.844C87.206 96.268 87.53 95.782 87.938 95.386C88.346 94.978 88.826 94.666 89.378 94.45C89.942 94.222 90.548 94.108 91.196 94.108C91.796 94.108 92.348 94.21 92.852 94.414C93.368 94.606 93.812 94.9 94.184 95.296C94.556 95.68 94.844 96.166 95.048 96.754C95.264 97.33 95.372 98.008 95.372 98.788ZM97.464 94.36H99.516V95.746H99.552C99.744 95.314 100.074 94.936 100.542 94.612C101.022 94.276 101.586 94.108 102.234 94.108C102.798 94.108 103.278 94.21 103.674 94.414C104.082 94.606 104.412 94.864 104.664 95.188C104.928 95.512 105.12 95.884 105.24 96.304C105.36 96.724 105.42 97.156 105.42 97.6V103H103.26V98.212C103.26 97.96 103.242 97.696 103.206 97.42C103.17 97.144 103.092 96.898 102.972 96.682C102.852 96.454 102.684 96.268 102.468 96.124C102.264 95.98 101.988 95.908 101.64 95.908C101.292 95.908 100.992 95.98 100.74 96.124C100.488 96.256 100.278 96.43 100.11 96.646C99.954 96.862 99.834 97.114 99.75 97.402C99.666 97.678 99.624 97.96 99.624 98.248V103H97.464V94.36ZM107.977 94.36H110.137V103H107.977V94.36ZM107.671 91.426C107.671 91.078 107.797 90.778 108.049 90.526C108.313 90.262 108.643 90.13 109.039 90.13C109.435 90.13 109.765 90.256 110.029 90.508C110.305 90.748 110.443 91.054 110.443 91.426C110.443 91.798 110.305 92.11 110.029 92.362C109.765 92.602 109.435 92.722 109.039 92.722C108.643 92.722 108.313 92.596 108.049 92.344C107.797 92.08 107.671 91.774 107.671 91.426ZM112.757 94.36H114.827V95.8H114.863C115.103 95.296 115.439 94.888 115.871 94.576C116.303 94.264 116.807 94.108 117.383 94.108C117.467 94.108 117.557 94.114 117.653 94.126C117.749 94.126 117.833 94.138 117.905 94.162V96.142C117.761 96.106 117.635 96.082 117.527 96.07C117.431 96.058 117.335 96.052 117.239 96.052C116.747 96.052 116.351 96.142 116.051 96.322C115.751 96.502 115.517 96.718 115.349 96.97C115.181 97.222 115.067 97.48 115.007 97.744C114.947 98.008 114.917 98.218 114.917 98.374V103H112.757V94.36ZM119.422 90.256H122.428L128.35 99.796H128.386V90.256H130.654V103H127.774L121.726 93.154H121.69V103H119.422V90.256ZM139.443 97.816C139.443 97.54 139.401 97.276 139.317 97.024C139.245 96.772 139.125 96.55 138.957 96.358C138.789 96.166 138.573 96.016 138.309 95.908C138.057 95.788 137.757 95.728 137.409 95.728C136.761 95.728 136.209 95.926 135.753 96.322C135.309 96.706 135.063 97.204 135.015 97.816H139.443ZM141.603 98.788C141.603 98.884 141.603 98.98 141.603 99.076C141.603 99.172 141.597 99.268 141.585 99.364H135.015C135.039 99.676 135.117 99.964 135.249 100.228C135.393 100.48 135.579 100.702 135.807 100.894C136.035 101.074 136.293 101.218 136.581 101.326C136.869 101.434 137.169 101.488 137.481 101.488C138.021 101.488 138.477 101.392 138.849 101.2C139.221 100.996 139.527 100.72 139.767 100.372L141.207 101.524C140.355 102.676 139.119 103.252 137.499 103.252C136.827 103.252 136.209 103.15 135.645 102.946C135.081 102.73 134.589 102.43 134.169 102.046C133.761 101.662 133.437 101.194 133.197 100.642C132.969 100.078 132.855 99.442 132.855 98.734C132.855 98.038 132.969 97.408 133.197 96.844C133.437 96.268 133.761 95.782 134.169 95.386C134.577 94.978 135.057 94.666 135.609 94.45C136.173 94.222 136.779 94.108 137.427 94.108C138.027 94.108 138.579 94.21 139.083 94.414C139.599 94.606 140.043 94.9 140.415 95.296C140.787 95.68 141.075 96.166 141.279 96.754C141.495 97.33 141.603 98.008 141.603 98.788ZM145.715 98.41L142.601 94.36H145.193L147.065 97.042L148.991 94.36H151.475L148.379 98.41L151.907 103H149.279L147.029 99.85L144.761 103H142.205L145.715 98.41ZM151.945 96.088V94.36H153.457V91.858H155.581V94.36H157.741V96.088H155.581V100.102C155.581 100.486 155.647 100.804 155.779 101.056C155.923 101.308 156.235 101.434 156.715 101.434C156.859 101.434 157.015 101.422 157.183 101.398C157.351 101.362 157.501 101.314 157.633 101.254L157.705 102.946C157.513 103.018 157.285 103.072 157.021 103.108C156.757 103.156 156.505 103.18 156.265 103.18C155.689 103.18 155.221 103.102 154.861 102.946C154.501 102.778 154.213 102.556 153.997 102.28C153.793 101.992 153.649 101.668 153.565 101.308C153.493 100.936 153.457 100.54 153.457 100.12V96.088H151.945ZM163.048 99.49H158.728V97.654H163.048V99.49ZM165.177 90.256H169.695C170.523 90.256 171.357 90.364 172.197 90.58C173.037 90.796 173.793 91.156 174.465 91.66C175.137 92.152 175.683 92.806 176.103 93.622C176.523 94.426 176.733 95.428 176.733 96.628C176.733 97.744 176.523 98.704 176.103 99.508C175.683 100.312 175.137 100.972 174.465 101.488C173.793 102.004 173.037 102.388 172.197 102.64C171.357 102.88 170.523 103 169.695 103H165.177V90.256ZM169.335 101.02C169.923 101.02 170.511 100.954 171.099 100.822C171.687 100.678 172.215 100.444 172.683 100.12C173.163 99.784 173.553 99.334 173.853 98.77C174.153 98.206 174.303 97.492 174.303 96.628C174.303 95.716 174.153 94.972 173.853 94.396C173.553 93.82 173.163 93.37 172.683 93.046C172.215 92.722 171.687 92.5 171.099 92.38C170.511 92.26 169.923 92.2 169.335 92.2H167.445V101.02H169.335ZM184.9 97.816C184.9 97.54 184.858 97.276 184.774 97.024C184.702 96.772 184.582 96.55 184.414 96.358C184.246 96.166 184.03 96.016 183.766 95.908C183.514 95.788 183.214 95.728 182.866 95.728C182.218 95.728 181.666 95.926 181.21 96.322C180.766 96.706 180.52 97.204 180.472 97.816H184.9ZM187.06 98.788C187.06 98.884 187.06 98.98 187.06 99.076C187.06 99.172 187.054 99.268 187.042 99.364H180.472C180.496 99.676 180.574 99.964 180.706 100.228C180.85 100.48 181.036 100.702 181.264 100.894C181.492 101.074 181.75 101.218 182.038 101.326C182.326 101.434 182.626 101.488 182.938 101.488C183.478 101.488 183.934 101.392 184.306 101.2C184.678 100.996 184.984 100.72 185.224 100.372L186.664 101.524C185.812 102.676 184.576 103.252 182.956 103.252C182.284 103.252 181.666 103.15 181.102 102.946C180.538 102.73 180.046 102.43 179.626 102.046C179.218 101.662 178.894 101.194 178.654 100.642C178.426 100.078 178.312 99.442 178.312 98.734C178.312 98.038 178.426 97.408 178.654 96.844C178.894 96.268 179.218 95.782 179.626 95.386C180.034 94.978 180.514 94.666 181.066 94.45C181.63 94.222 182.236 94.108 182.884 94.108C183.484 94.108 184.036 94.21 184.54 94.414C185.056 94.606 185.5 94.9 185.872 95.296C186.244 95.68 186.532 96.166 186.736 96.754C186.952 97.33 187.06 98.008 187.06 98.788ZM199.465 94.108C200.029 94.108 200.509 94.21 200.905 94.414C201.313 94.606 201.643 94.864 201.895 95.188C202.159 95.512 202.351 95.884 202.471 96.304C202.591 96.724 202.651 97.156 202.651 97.6V103H200.491V98.212C200.491 97.96 200.473 97.696 200.437 97.42C200.401 97.144 200.323 96.898 200.203 96.682C200.083 96.454 199.915 96.268 199.699 96.124C199.495 95.98 199.219 95.908 198.871 95.908C198.535 95.908 198.247 95.98 198.007 96.124C197.767 96.268 197.569 96.454 197.413 96.682C197.257 96.91 197.143 97.168 197.071 97.456C196.999 97.732 196.963 98.008 196.963 98.284V103H194.803V97.78C194.803 97.24 194.671 96.796 194.407 96.448C194.155 96.088 193.753 95.908 193.201 95.908C192.877 95.908 192.595 95.98 192.355 96.124C192.115 96.256 191.917 96.43 191.761 96.646C191.617 96.862 191.503 97.114 191.419 97.402C191.347 97.678 191.311 97.96 191.311 98.248V103H189.151V94.36H191.203V95.746H191.239C191.335 95.53 191.461 95.326 191.617 95.134C191.785 94.942 191.977 94.768 192.193 94.612C192.421 94.456 192.679 94.336 192.967 94.252C193.255 94.156 193.573 94.108 193.921 94.108C194.593 94.108 195.151 94.258 195.595 94.558C196.039 94.858 196.381 95.254 196.621 95.746C196.909 95.218 197.293 94.816 197.773 94.54C198.253 94.252 198.817 94.108 199.465 94.108ZM205.201 94.36H207.361V103H205.201V94.36ZM204.895 91.426C204.895 91.078 205.021 90.778 205.273 90.526C205.537 90.262 205.867 90.13 206.263 90.13C206.659 90.13 206.989 90.256 207.253 90.508C207.529 90.748 207.667 91.054 207.667 91.426C207.667 91.798 207.529 92.11 207.253 92.362C206.989 92.602 206.659 92.722 206.263 92.722C205.867 92.722 205.537 92.596 205.273 92.344C205.021 92.08 204.895 91.774 204.895 91.426ZM210.09 90.256H215.058C215.538 90.256 216.012 90.316 216.48 90.436C216.948 90.544 217.362 90.73 217.722 90.994C218.094 91.246 218.394 91.576 218.622 91.984C218.85 92.392 218.964 92.884 218.964 93.46C218.964 94.18 218.76 94.774 218.352 95.242C217.944 95.71 217.41 96.046 216.75 96.25V96.286C217.554 96.394 218.214 96.706 218.73 97.222C219.246 97.738 219.504 98.428 219.504 99.292C219.504 99.988 219.366 100.576 219.09 101.056C218.814 101.524 218.448 101.902 217.992 102.19C217.548 102.478 217.032 102.688 216.444 102.82C215.868 102.94 215.28 103 214.68 103H210.09V90.256ZM212.358 95.44H214.374C215.13 95.44 215.706 95.29 216.102 94.99C216.498 94.69 216.696 94.264 216.696 93.712C216.696 93.136 216.492 92.728 216.084 92.488C215.676 92.248 215.04 92.128 214.176 92.128H212.358V95.44ZM212.358 101.092H214.392C214.68 101.092 214.992 101.074 215.328 101.038C215.664 100.99 215.97 100.9 216.246 100.768C216.534 100.636 216.768 100.444 216.948 100.192C217.14 99.94 217.236 99.604 217.236 99.184C217.236 98.512 217.008 98.044 216.552 97.78C216.096 97.516 215.406 97.384 214.482 97.384H212.358V101.092ZM221.132 98.644C221.132 97.96 221.252 97.342 221.492 96.79C221.744 96.226 222.08 95.746 222.5 95.35C222.92 94.954 223.418 94.648 223.994 94.432C224.57 94.216 225.182 94.108 225.83 94.108C226.478 94.108 227.09 94.216 227.666 94.432C228.242 94.648 228.74 94.954 229.16 95.35C229.58 95.746 229.91 96.226 230.15 96.79C230.402 97.342 230.528 97.96 230.528 98.644C230.528 99.328 230.402 99.952 230.15 100.516C229.91 101.08 229.58 101.566 229.16 101.974C228.74 102.37 228.242 102.682 227.666 102.91C227.09 103.138 226.478 103.252 225.83 103.252C225.182 103.252 224.57 103.138 223.994 102.91C223.418 102.682 222.92 102.37 222.5 101.974C222.08 101.566 221.744 101.08 221.492 100.516C221.252 99.952 221.132 99.328 221.132 98.644ZM223.328 98.644C223.328 98.98 223.376 99.316 223.472 99.652C223.58 99.988 223.736 100.288 223.94 100.552C224.144 100.816 224.402 101.032 224.714 101.2C225.026 101.368 225.398 101.452 225.83 101.452C226.262 101.452 226.634 101.368 226.946 101.2C227.258 101.032 227.516 100.816 227.72 100.552C227.924 100.288 228.074 99.988 228.17 99.652C228.278 99.316 228.332 98.98 228.332 98.644C228.332 98.308 228.278 97.978 228.17 97.654C228.074 97.318 227.924 97.018 227.72 96.754C227.516 96.49 227.258 96.28 226.946 96.124C226.634 95.956 226.262 95.872 225.83 95.872C225.398 95.872 225.026 95.956 224.714 96.124C224.402 96.28 224.144 96.49 223.94 96.754C223.736 97.018 223.58 97.318 223.472 97.654C223.376 97.978 223.328 98.308 223.328 98.644ZM232.658 89.392H234.818V103H232.658V89.392ZM246.223 103H244.171V101.704H244.135C243.835 102.208 243.415 102.592 242.875 102.856C242.347 103.12 241.777 103.252 241.165 103.252C240.505 103.252 239.911 103.132 239.383 102.892C238.867 102.64 238.423 102.31 238.051 101.902C237.691 101.482 237.409 100.996 237.205 100.444C237.013 99.88 236.917 99.28 236.917 98.644C236.917 98.008 237.019 97.414 237.223 96.862C237.427 96.31 237.715 95.83 238.087 95.422C238.459 95.014 238.903 94.696 239.419 94.468C239.935 94.228 240.499 94.108 241.111 94.108C241.507 94.108 241.861 94.156 242.173 94.252C242.485 94.336 242.755 94.444 242.983 94.576C243.223 94.708 243.427 94.852 243.595 95.008C243.763 95.164 243.901 95.314 244.009 95.458H244.063V89.392H246.223V103ZM239.113 98.644C239.113 98.98 239.161 99.316 239.257 99.652C239.365 99.988 239.521 100.288 239.725 100.552C239.929 100.816 240.187 101.032 240.499 101.2C240.811 101.368 241.177 101.452 241.597 101.452C241.993 101.452 242.347 101.374 242.659 101.218C242.971 101.05 243.235 100.834 243.451 100.57C243.679 100.306 243.847 100.012 243.955 99.688C244.075 99.352 244.135 99.016 244.135 98.68C244.135 98.344 244.075 98.008 243.955 97.672C243.847 97.336 243.679 97.036 243.451 96.772C243.235 96.508 242.971 96.292 242.659 96.124C242.347 95.956 241.993 95.872 241.597 95.872C241.177 95.872 240.811 95.956 240.499 96.124C240.187 96.28 239.929 96.49 239.725 96.754C239.521 97.018 239.365 97.318 239.257 97.654C239.161 97.978 239.113 98.308 239.113 98.644Z" fill="black"/>
<rect x="63" y="140" width="91" height="91" fill="#538FFC"/>
<rect x="271" y="140" width="91" height="91" fill="#292A2F"/>
<rect x="167" y="140" width="91" height="91" fill="#202126"/>
<rect x="375" y="140" width="91" height="91" fill="#43494F"/>
<rect x="63" y="244" width="91" height="91" fill="#4ED85C"/>
<rect x="172" y="244" width="91" height="91" fill="#FE3D28"/>
</svg>
